<svg xmlns="http://www.w3.org/2000/svg" style="display: none;"><symbol id="man-travelling" viewBox="0 0 491.793 491.793"><title>man-travelling</title><path d="M167.252,100.996c27.845,0,50.498-22.653,50.498-50.498C217.75,22.653,195.097,0,167.252,0 c-27.845,0-50.498,22.653-50.498,50.498C116.754,78.343,139.408,100.996,167.252,100.996z M167.252,8.5 c23.158,0,41.998,18.84,41.998,41.998s-18.84,41.998-41.998,41.998s-41.998-18.84-41.998-41.998S144.094,8.5,167.252,8.5z"/><path d="M194.994,317.539c-2.276,0.573-3.656,2.883-3.083,5.159l7.693,30.543c0.485,1.928,2.217,3.213,4.118,3.213 c0.344,0,0.692-0.042,1.041-0.13c2.276-0.573,3.656-2.883,3.083-5.159l-7.693-30.543 C199.58,318.346,197.27,316.965,194.994,317.539z"/><path d="M347.836,417.311c-11.166,0-20.25,9.084-20.25,20.25c0,11.166,9.084,20.25,20.25,20.25c11.166,0,20.25-9.084,20.25-20.25 C368.086,426.395,359.002,417.311,347.836,417.311z M347.836,449.311c-6.479,0-11.75-5.272-11.75-11.75 c0-6.479,5.271-11.75,11.75-11.75c6.478,0,11.75,5.271,11.75,11.75C359.586,444.039,354.315,449.311,347.836,449.311z"/><path d="M448.01,384.072l-63.519-133.123c-1.639-3.436-4.518-6.026-8.106-7.297c-3.588-1.271-7.458-1.066-10.891,0.572 l-80.324,38.326c-2.081,0.992-3.94,2.501-5.408,4.343l-16.493-33.935c6.512-7.94,7.767-19.418,2.292-28.76l-54.183-93.941 c-0.023-0.04-0.055-0.071-0.08-0.111c-8.322-15.849-24.938-26.69-44.046-26.69c-24.359,0-44.975,17.413-49.02,41.404 c-0.001,0.007,0,0.014-0.001,0.02l-66.628,54.817c-5.206,4.282-8.434,10.337-9.086,17.049c-0.652,6.711,1.348,13.274,5.632,18.482 c4.813,5.851,11.923,9.207,19.505,9.207c5.827,0,11.52-2.042,16.028-5.75l33.844-27.844v73.36c0,3.379,0.354,6.69,1.008,9.903 l-50.177,152.31c-2.791,8.466-2.117,17.511,1.896,25.47c4.014,7.958,10.887,13.877,19.353,16.666 c3.455,1.139,6.963,1.679,10.417,1.679c14.017-0.001,27.101-8.909,31.721-22.93l32.574-98.869l25.357,98.317 c3.802,14.746,17.08,25.044,32.29,25.044c2.806,0,5.616-0.357,8.354-1.065c8.633-2.226,15.882-7.679,20.411-15.355 c4.529-7.677,5.797-16.658,3.57-25.29l-39.244-152.181c1.271-4.443,1.922-9.044,1.922-13.699l0-43.12l5.006,8.613 c4.694,8.008,13.149,12.475,21.824,12.475c4.332,0,8.719-1.114,12.719-3.457c0.023-0.014,0.045-0.029,0.069-0.043l71.139,146.367 c-10.882,6.751-18.148,18.802-18.148,32.523c0,21.091,17.159,38.25,38.25,38.25c21.091,0,38.25-17.159,38.25-38.25 c0-2.663-0.275-5.263-0.796-7.773l55.996-26.718C448.375,399.686,451.392,391.164,448.01,384.072z M78.283,232.122 c-2.991,2.459-6.766,3.814-10.629,3.814c-5.031,0-9.748-2.226-12.94-6.107c-2.842-3.454-4.169-7.809-3.736-12.26 c0.434-4.451,2.573-8.467,6.026-11.307l93.493-76.92c2.989-2.459,6.763-3.814,10.625-3.814c5.033,0,9.752,2.227,12.945,6.107 c5.863,7.131,4.834,17.704-2.295,23.569L78.283,232.122z M177.172,161.77c10.747-8.843,12.299-24.782,3.459-35.533 c-4.814-5.851-11.925-9.208-19.51-9.208c-5.827,0-11.519,2.042-16.025,5.749l-14.868,12.233 c6.751-13.84,20.893-23.054,37.024-23.054c22.732,0,41.225,18.493,41.225,41.225l0.001,125.137 c-5.95-9.681-16.595-15.895-28.406-15.895c-2.804,0-5.614,0.358-8.353,1.065c-17.819,4.596-28.579,22.83-23.984,40.647 l4.791,18.575c-15.698-5.999-26.5-21.224-26.5-38.508V203.85L177.172,161.77z M123.671,464.641 c-4.292,13.023-18.378,20.13-31.405,15.839c-2.284-0.752-4.406-1.82-6.334-3.145c0.345-0.398,0.629-0.857,0.811-1.385l28-81 c0.767-2.219-0.41-4.639-2.628-5.405c-2.222-0.768-4.64,0.41-5.405,2.628l-27.197,78.677c-0.605-0.892-1.177-1.813-1.67-2.791 c-2.991-5.931-3.493-12.672-1.414-18.981l46.745-141.893c6.421,12.284,17.852,21.673,31.849,25.211l5.365,20.803L123.671,464.641z M243.409,471.054c-1.134,1.921-2.513,3.637-4.067,5.156l-23.436-93.045c-0.573-2.276-2.885-3.656-5.159-3.083 c-2.276,0.573-3.656,2.883-3.083,5.159l24.176,95.983c-1.175,0.504-2.382,0.948-3.643,1.273c-2.046,0.527-4.143,0.795-6.232,0.795 c-11.332,0-21.226-7.676-24.06-18.667l-41.939-162.613c-3.424-13.278,4.596-26.868,17.877-30.294 c2.045-0.527,4.141-0.795,6.23-0.795c11.333,0,21.227,7.677,24.063,18.669l41.934,162.613 C247.729,458.64,246.785,465.333,243.409,471.054z M229.326,245.411l-12.348-21.245l-0.001-67.189l41.235,71.493 c4.667,7.964,1.982,18.24-5.983,22.909C244.264,256.044,233.986,253.363,229.326,245.411z M347.836,467.311 c-16.404,0-29.75-13.346-29.75-29.75s13.346-29.75,29.75-29.75s29.75,13.346,29.75,29.75S364.241,467.311,347.836,467.311z M347.836,399.311c-4.349,0-8.525,0.74-12.424,2.082l-50.134-103.15c-0.798-1.683-0.283-3.433,0.096-4.326 c0.682-1.606,1.974-2.988,3.455-3.694l33.003-15.747l27.022,59.834c0.71,1.572,2.256,2.502,3.876,2.502 c0.584,0,1.179-0.121,1.746-0.378c2.14-0.966,3.091-3.483,2.124-5.622l-27.095-59.997l16.958-8.091l67.818,143.813l-31.675,15.113 C376.556,408.482,363.251,399.311,347.836,399.311z M437.625,395.398l-15.673,7.478l-67.818-143.814l15.022-7.167 c1.387-0.66,2.944-0.742,4.393-0.23c1.448,0.513,2.609,1.559,3.271,2.944l63.519,133.122 C441.702,390.594,440.486,394.033,437.625,395.398z"/></symbol><symbol id="newspaper" viewBox="0 0 60 60"><title>newspaper</title><path d="M31,16H17v14h14V16z M29,28H19V18h10V28z"/><path d="M52,16H36c-0.553,0-1,0.447-1,1s0.447,1,1,1h16c0.553,0,1-0.447,1-1S52.553,16,52,16z"/><path d="M52,22H36c-0.553,0-1,0.447-1,1s0.447,1,1,1h16c0.553,0,1-0.447,1-1S52.553,22,52,22z"/><path d="M52,28H36c-0.553,0-1,0.447-1,1s0.447,1,1,1h16c0.553,0,1-0.447,1-1S52.553,28,52,28z"/><path d="M52,34H19c-0.553,0-1,0.447-1,1s0.447,1,1,1h33c0.553,0,1-0.447,1-1S52.553,34,52,34z"/><path d="M34,40H19c-0.553,0-1,0.447-1,1s0.447,1,1,1h15c0.553,0,1-0.447,1-1S34.553,40,34,40z"/><path d="M34,46H19c-0.553,0-1,0.447-1,1s0.447,1,1,1h15c0.553,0,1-0.447,1-1S34.553,46,34,46z"/><path d="M34,52H19c-0.553,0-1,0.447-1,1s0.447,1,1,1h15c0.553,0,1-0.447,1-1S34.553,52,34,52z"/><path d="M39,54h14V40H39V54z M41,42h10v10H41V42z"/><path d="M59,13c0-0.017-0.009-0.031-0.01-0.048V0H11v30H1v24c0,3.309,2.691,6,6,6h46c3.303,0,5.99-2.688,5.99-5.99V13.048 C58.991,13.031,59,13.017,59,13z M56.99,2v10H13V2H56.99z M3,54V32h8v22c0,2.206-1.794,4-4,4S3,56.206,3,54z M53,58H11.469 c0.016-0.018,0.027-0.039,0.042-0.057c0.204-0.233,0.39-0.482,0.556-0.745c0.027-0.042,0.052-0.084,0.078-0.128 c0.162-0.27,0.305-0.552,0.423-0.848c0.016-0.041,0.03-0.082,0.045-0.123c0.115-0.306,0.209-0.622,0.273-0.949 c0.006-0.03,0.008-0.061,0.014-0.09C12.962,54.716,13,54.362,13,54V30V14h43.99v40.01C56.99,56.21,55.2,58,53,58z"/><path d="M47,4H23v6h24V4z M45,8H25V6h20V8z"/></symbol><symbol id="calendar" viewBox="0 0 512 512"><title>calendar</title><g> <g> <path d="M452,40h-24V0h-40v40H124V0H84v40H60C26.916,40,0,66.916,0,100v352c0,33.084,26.916,60,60,60h392 c33.084,0,60-26.916,60-60V100C512,66.916,485.084,40,452,40z M472,452c0,11.028-8.972,20-20,20H60c-11.028,0-20-8.972-20-20V188 h432V452z M472,148H40v-48c0-11.028,8.972-20,20-20h24v40h40V80h264v40h40V80h24c11.028,0,20,8.972,20,20V148z"/> </g> </g><g> <g> <rect x="76" y="230" width="40" height="40"/> </g> </g><g> <g> <rect x="156" y="230" width="40" height="40"/> </g> </g><g> <g> <rect x="236" y="230" width="40" height="40"/> </g> </g><g> <g> <rect x="316" y="230" width="40" height="40"/> </g> </g><g> <g> <rect x="396" y="230" width="40" height="40"/> </g> </g><g> <g> <rect x="76" y="310" width="40" height="40"/> </g> </g><g> <g> <rect x="156" y="310" width="40" height="40"/> </g> </g><g> <g> <rect x="236" y="310" width="40" height="40"/> </g> </g><g> <g> <rect x="316" y="310" width="40" height="40"/> </g> </g><g> <g> <rect x="76" y="390" width="40" height="40"/> </g> </g><g> <g> <rect x="156" y="390" width="40" height="40"/> </g> </g><g> <g> <rect x="236" y="390" width="40" height="40"/> </g> </g><g> <g> <rect x="316" y="390" width="40" height="40"/> </g> </g><g> <g> <rect x="396" y="310" width="40" height="40"/> </g> </g></symbol><symbol id="video-player" viewBox="0 0 58 58"><title>video-player</title><path d="M36.537,28.156l-11-7c-0.308-0.195-0.698-0.208-1.019-0.033C24.199,21.299,24,21.635,24,22v14 c0,0.365,0.199,0.701,0.519,0.877C24.669,36.959,24.834,37,25,37c0.187,0,0.374-0.053,0.537-0.156l11-7 C36.825,29.66,37,29.342,37,29S36.825,28.34,36.537,28.156z M26,34.179V23.821L34.137,29L26,34.179z"/><path d="M57,6H47H11H1C0.448,6,0,6.447,0,7v11v11v11v11c0,0.553,0.448,1,1,1h10h36h10c0.552,0,1-0.447,1-1V40V29V18V7 C58,6.447,57.552,6,57,6z M10,28H2v-9h8V28z M2,30h8v9H2V30z M12,40V29V18V8h34v10v11v11v10H12V40z M56,28h-8v-9h8V28z M48,30h8v9 h-8V30z M56,8v9h-8V8H56z M2,8h8v9H2V8z M2,50v-9h8v9H2z M56,50h-8v-9h8V50z"/></symbol><symbol id="heartbeat" viewBox="0 0 512 512"><title>heartbeat</title><g> <g> <path d="M376,33c-60.659,0-99.595,42.012-120,79.849C235.595,75.011,196.659,33,136,33C59.037,33,0,95.446,0,178.268 c0,21.61,4.327,41.561,12.294,60.732h114.434l25.854-51.709c5.098-10.166,21.738-10.166,26.836,0L226,280.456l16.582-33.164 c5.098-10.166,21.738-10.166,26.836,0L286,280.456l46.582-93.164c5.098-10.166,21.738-10.166,26.836,0L385.272,239h114.434 C507.673,219.829,512,199.878,512,178.268C512,95.446,452.963,33,376,33z"/> </g> </g><g> <g> <path d="M376,269c-5.684,0-10.869-3.208-13.418-8.291L346,227.545l-46.582,93.164C296.869,325.792,291.684,329,286,329 c-5.684,0-10.869-3.208-13.418-8.291L256,287.545l-16.582,33.164c-5.098,10.166-21.738,10.166-26.836,0L166,227.545 l-16.582,33.164C146.869,265.792,141.684,269,136,269H28.037c30.873,48.574,86.474,94.713,156.024,153.413 c19.526,16.479,40.298,34.014,62.109,52.925c2.827,2.446,6.328,3.662,9.829,3.662s7.002-1.216,9.829-3.662 c21.812-18.911,42.583-36.445,62.109-52.925c69.551-58.7,125.151-104.839,156.024-153.413H376z"/> </g> </g></symbol><symbol id="books-stack-of-three" viewBox="0 0 335.08 335.079"><title>books-stack-of-three</title><path d="M311.175,115.775c-1.355-10.186-1.546-27.73,7.915-33.621c0.169-0.108,0.295-0.264,0.443-0.398 c7.735-2.474,13.088-5.946,8.886-10.618l-114.102-34.38L29.56,62.445c0,0-21.157,3.024-19.267,35.894 c1.026,17.89,6.637,26.676,11.544,31l-15.161,4.569c-4.208,4.672,1.144,8.145,8.88,10.615c0.147,0.138,0.271,0.293,0.443,0.401 c9.455,5.896,9.273,23.438,7.913,33.626c-33.967,9.645-21.774,12.788-21.774,12.788l7.451,1.803 c-5.241,4.736-10.446,13.717-9.471,30.75c1.891,32.864,19.269,35.132,19.269,35.132l120.904,39.298l182.49-44.202 c0,0,12.197-3.148-21.779-12.794c-1.366-10.172-1.556-27.712,7.921-33.623c0.174-0.105,0.301-0.264,0.442-0.396 c7.736-2.474,13.084-5.943,8.881-10.615l-7.932-2.395c5.29-3.19,13.236-11.527,14.481-33.183 c0.859-14.896-3.027-23.62-7.525-28.756l15.678-3.794C332.949,128.569,345.146,125.421,311.175,115.775z M158.533,115.354 l30.688-6.307l103.708-21.312l15.451-3.178c-4.937,9.036-4.73,21.402-3.913,29.35c0.179,1.798,0.385,3.44,0.585,4.688 L288.14,122.8l-130.897,32.563L158.533,115.354z M26.71,147.337l15.449,3.178l99.597,20.474l8.701,1.782l0,0l0,0l26.093,5.363 l1.287,40.01L43.303,184.673l-13.263-3.296c0.195-1.25,0.401-2.89,0.588-4.693C31.44,168.742,31.651,156.373,26.71,147.337z M20.708,96.757c-0.187-8.743,1.371-15.066,4.52-18.28c2.004-2.052,4.369-2.479,5.991-2.479c0.857,0,1.474,0.119,1.516,0.119 l79.607,25.953l39.717,12.949l-1.303,40.289L39.334,124.07l-5.88-1.647c-0.216-0.061-0.509-0.103-0.735-0.113 C32.26,122.277,21.244,121.263,20.708,96.757z M140.579,280.866L23.28,247.98c-0.217-0.063-0.507-0.105-0.733-0.116 c-0.467-0.031-11.488-1.044-12.021-25.544c-0.19-8.754,1.376-15.071,4.519-18.288c2.009-2.052,4.375-2.479,5.994-2.479 c0.859,0,1.474,0.115,1.519,0.115c0,0,0.005,0,0,0l119.316,38.908L140.579,280.866z M294.284,239.459 c0.185,1.804,0.391,3.443,0.591,4.693l-147.812,36.771l1.292-40.01l31.601-6.497l4.667,1.129l17.492-5.685l80.631-16.569 l15.457-3.18C293.261,219.146,293.466,231.517,294.284,239.459z M302.426,185.084c-0.269,0.006-0.538,0.042-0.791,0.122 l-11.148,3.121l-106.148,29.764l-1.298-40.289l34.826-11.359l84.327-27.501c0.011-0.005,4.436-0.988,7.684,2.315 c3.144,3.214,4.704,9.537,4.52,18.28C313.848,184.035,302.827,185.053,302.426,185.084z"/></symbol><symbol id="briefcase" viewBox="0 0 60 60"><title>briefcase</title><path d="M56.99,13.5H55v-3H45v3h-4V7.706C41,5.938,39.562,4.5,37.794,4.5H22.206C20.438,4.5,19,5.938,19,7.706V13.5h-4v-3H5v3H3.01 C1.351,13.5,0,14.851,0,16.51v35.98c0,1.659,1.351,3.01,3.01,3.01h53.98c1.659,0,3.01-1.351,3.01-3.01V16.51 C60,14.851,58.649,13.5,56.99,13.5z M47,12.5h6v1h-6V12.5z M21,7.706C21,7.041,21.541,6.5,22.206,6.5h15.588 C38.459,6.5,39,7.041,39,7.706V13.5H21V7.706z M19,15.5h22h4h5v38H10v-38h5H19z M7,12.5h6v1H7V12.5z M2,52.49V16.51 c0-0.557,0.453-1.01,1.01-1.01H5h3v38H3.01C2.453,53.5,2,53.047,2,52.49z M58,52.49c0,0.557-0.453,1.01-1.01,1.01H52v-38h3h1.99 c0.557,0,1.01,0.453,1.01,1.01V52.49z"/></symbol><symbol id="avatar" viewBox="0 0 482.9 482.9"><title>avatar</title><path d="M239.7,260.2c0.5,0,1,0,1.6,0c0.2,0,0.4,0,0.6,0c0.3,0,0.7,0,1,0c29.3-0.5,53-10.8,70.5-30.5 c38.5-43.4,32.1-117.8,31.4-124.9c-2.5-53.3-27.7-78.8-48.5-90.7C280.8,5.2,262.7,0.4,242.5,0h-0.7c-0.1,0-0.3,0-0.4,0h-0.6 c-11.1,0-32.9,1.8-53.8,13.7c-21,11.9-46.6,37.4-49.1,91.1c-0.7,7.1-7.1,81.5,31.4,124.9C186.7,249.4,210.4,259.7,239.7,260.2z M164.6,107.3c0-0.3,0.1-0.6,0.1-0.8c3.3-71.7,54.2-79.4,76-79.4h0.4c0.2,0,0.5,0,0.8,0c27,0.6,72.9,11.6,76,79.4 c0,0.3,0,0.6,0.1,0.8c0.1,0.7,7.1,68.7-24.7,104.5c-12.6,14.2-29.4,21.2-51.5,21.4c-0.2,0-0.3,0-0.5,0l0,0c-0.2,0-0.3,0-0.5,0 c-22-0.2-38.9-7.2-51.4-21.4C157.7,176.2,164.5,107.9,164.6,107.3z"/><path d="M446.8,383.6c0-0.1,0-0.2,0-0.3c0-0.8-0.1-1.6-0.1-2.5c-0.6-19.8-1.9-66.1-45.3-80.9c-0.3-0.1-0.7-0.2-1-0.3 c-45.1-11.5-82.6-37.5-83-37.8c-6.1-4.3-14.5-2.8-18.8,3.3c-4.3,6.1-2.8,14.5,3.3,18.8c1.7,1.2,41.5,28.9,91.3,41.7 c23.3,8.3,25.9,33.2,26.6,56c0,0.9,0,1.7,0.1,2.5c0.1,9-0.5,22.9-2.1,30.9c-16.2,9.2-79.7,41-176.3,41 c-96.2,0-160.1-31.9-176.4-41.1c-1.6-8-2.3-21.9-2.1-30.9c0-0.8,0.1-1.6,0.1-2.5c0.7-22.8,3.3-47.7,26.6-56 c49.8-12.8,89.6-40.6,91.3-41.7c6.1-4.3,7.6-12.7,3.3-18.8c-4.3-6.1-12.7-7.6-18.8-3.3c-0.4,0.3-37.7,26.3-83,37.8 c-0.4,0.1-0.7,0.2-1,0.3c-43.4,14.9-44.7,61.2-45.3,80.9c0,0.9,0,1.7-0.1,2.5c0,0.1,0,0.2,0,0.3c-0.1,5.2-0.2,31.9,5.1,45.3 c1,2.6,2.8,4.8,5.2,6.3c3,2,74.9,47.8,195.2,47.8s192.2-45.9,195.2-47.8c2.3-1.5,4.2-3.7,5.2-6.3 C447,415.5,446.9,388.8,446.8,383.6z"/></symbol><symbol id="home" viewBox="0 0 512 512"><title>home</title><g> <g> <path d="M506.555,208.064L263.859,30.367c-4.68-3.426-11.038-3.426-15.716,0L5.445,208.064 c-5.928,4.341-7.216,12.665-2.875,18.593s12.666,7.214,18.593,2.875L256,57.588l234.837,171.943c2.368,1.735,5.12,2.57,7.848,2.57 c4.096,0,8.138-1.885,10.744-5.445C513.771,220.729,512.483,212.405,506.555,208.064z"/> </g> </g><g> <g> <path d="M442.246,232.543c-7.346,0-13.303,5.956-13.303,13.303v211.749H322.521V342.009c0-36.68-29.842-66.52-66.52-66.52 s-66.52,29.842-66.52,66.52v115.587H83.058V245.847c0-7.347-5.957-13.303-13.303-13.303s-13.303,5.956-13.303,13.303v225.053 c0,7.347,5.957,13.303,13.303,13.303h133.029c6.996,0,12.721-5.405,13.251-12.267c0.032-0.311,0.052-0.651,0.052-1.036v-128.89 c0-22.009,17.905-39.914,39.914-39.914s39.914,17.906,39.914,39.914v128.89c0,0.383,0.02,0.717,0.052,1.024 c0.524,6.867,6.251,12.279,13.251,12.279h133.029c7.347,0,13.303-5.956,13.303-13.303V245.847 C455.549,238.499,449.593,232.543,442.246,232.543z"/> </g> </g></symbol></svg>